<?xml version="1.0" encoding="utf-8"?>
<!-- Generator: Adobe Illustrator 19.0.0, SVG Export Plug-In . SVG Version: 6.00 Build 0)  -->
<svg version="1.1" id="Layer_1" xmlns="http://www.w3.org/2000/svg" xmlns:xlink="http://www.w3.org/1999/xlink" x="0px" y="0px"
	 viewBox="-223 25 512 512" style="enable-background:new -223 25 512 512;" xml:space="preserve">
<style type="text/css">
	.st0{display:none;}
</style>
<g>
	<path class="st0" d="M-110.1,115.9V324h284.7v-55H98v-76.6H21.5v-76.6H-110.1z"/>
	<g>
		<path d="M-152.8,196.3c-1.6,2.2-2.1,5.7,0.1,11.2l26.8,69.9c3.4,8.9,8.4,9.3,12.2,7.7c3.8-1.5,7.2-5.1,3.8-14l-27-69.8
			c-3.4-8.9-8.4-9.3-12.2-7.8C-150.5,194.1-151.8,194.9-152.8,196.3z"/>
		<path d="M-0.4,155.4l-119.7,50.3l19.3,50l121.4-43.2c0.4-8.1-2.4-17.8-7.1-29.9C8.9,170.5,5.4,163.9-0.4,155.4z"/>
		<path d="M113.8,180c-0.1-10-1.7-19.9-4.6-29.2l0.1-0.1c-0.5-1.4-1-2.8-1.6-4.1c-0.5-1.4-1.1-2.8-1.6-4.1l-0.2,0
			c-4.1-8.9-9.5-17.4-16.1-24.8l-78.8,33c4.8,7.4,11.4,22.2,13.6,27.8c1.7,4.5,7.2,21,8.5,29.8L113.8,180z"/>
		<path d="M123.3,104.6l0,0.2l-21.2,8.9c5.6,6.8,10.4,14.4,14.1,22.3l0,0.1c1.1,2.3,2.1,4.7,3.1,7.1c0.1,0.2,0.1,0.4,0.2,0.6
			c0.1,0.2,0.1,0.4,0.2,0.6c0.9,2.4,1.7,4.9,2.5,7.3l0,0.1c2.6,8.4,4.1,17.1,4.5,26l21.7-7.6l0.1,0.1l0.2-0.2l4.4-1.5
			c10.4-4.3,14.7-14.3,14.6-25.4l1.1-1.6c-0.7-5.1-2.1-10.2-4.2-15c-1.7-4.9-4.1-9.7-6.9-13.9l-1.9-0.4c-7.4-8.3-17.2-12.8-27.9-9.2
			l-4.3,1.8L123.3,104.6z"/>
	</g>
	<circle cx="168.7" cy="261.4" r="30.3"/>
	<circle cx="102" cy="242.8" r="30.3"/>
	<circle cx="-0.9" cy="291.7" r="30.3"/>
	<circle cx="85.3" cy="319.1" r="30.3"/>
	<g>
		<path d="M163.3,463c2.6-0.9,5.1-3.4,6.5-9.2l18.6-72.5c2.4-9.3-1.5-12.4-5.5-13.4c-3.9-1-8.8,0-11.2,9.3l-18.4,72.5
			c-2.4,9.3,1.5,12.4,5.4,13.4C160.1,463.4,161.7,463.5,163.3,463z"/>
		<path d="M15.4,408.1L142,436.4l13.2-51.9l-124-35c-5,6.4-8.3,15.9-11.5,28.5S15.5,397.9,15.4,408.1z"/>
		<path d="M-63.6,322c-5.7,8.2-10.1,17.2-13.1,26.5l-0.2,0c-0.4,1.4-0.8,2.8-1.1,4.2c-0.4,1.4-0.7,2.9-1.1,4.2l0.1,0.1
			c-1.8,9.7-2.3,19.7-1.2,29.6l83.3,18.7c0.3-8.8,3.5-24.7,5-30.5c1.2-4.7,6.3-21.3,10.3-29.2L-63.6,322z"/>
		<path d="M-114.9,378l0.1-0.1l22.4,5c-0.6-8.8-0.1-17.7,1.4-26.3l0-0.1c0.4-2.5,1-5.1,1.6-7.5c0.1-0.2,0.1-0.4,0.2-0.6
			c0.1-0.2,0.1-0.4,0.2-0.6c0.6-2.5,1.4-4.9,2.2-7.4l0-0.1c2.8-8.4,6.6-16.3,11.4-23.8l-22.1-6.4l0-0.2l-0.3,0.1l-4.5-1.3
			c-11-2.5-20.3,3.2-26.6,12.3l-1.9,0.7c-2.4,4.5-4.2,9.5-5.3,14.6c-1.4,5-2.3,10.3-2.4,15.4l1.3,1.5c1.2,11.1,6.6,20.4,17.4,23.6
			l4.6,1L-114.9,378z"/>
	</g>
</g>
</svg>
