<?xml version="1.0" encoding="utf-8"?>
<!-- Generator: Adobe Illustrator 19.0.0, SVG Export Plug-In . SVG Version: 6.00 Build 0)  -->
<svg version="1.1" id="Layer_1" xmlns="http://www.w3.org/2000/svg" xmlns:xlink="http://www.w3.org/1999/xlink" x="0px" y="0px"
	 viewBox="-239 0 800 800" style="enable-background:new -239 0 800 800;" xml:space="preserve">
<style type="text/css">
	.st0{stroke:#000000;stroke-width:40;stroke-miterlimit:10;}
	.st1{stroke:#000000;stroke-width:24.2757;stroke-miterlimit:10;}
</style>
<g>
	<path class="st0" d="M315.2,534c-8.6-0.7-15.7,6.3-15.7,14.9v155.5c0,8.1-6.5,14.6-14.6,14.6H-62.9c-8.1,0-14.6-6.5-14.6-14.6V95.6
		c0-8.1,6.5-14.6,14.6-14.6h347.8c8.1,0,14.6,6.5,14.6,14.6v159.5c0,8.7,7.1,15.7,15.7,14.9c7.4-0.6,13.3-6.9,13.3-14.4v-160
		c0-24.1-19.5-43.6-43.6-43.6H-62.9c-24.1,0-43.6,19.5-43.6,43.6v608.8c0,24.1,19.5,43.6,43.6,43.6h347.8
		c24.1,0,43.6-19.5,43.6-43.6v-156C328.5,540.9,322.7,534.6,315.2,534z"/>
	<path class="st1" d="M522.5,386l-128-112c-4.7-4.1-11.5-5.1-17.2-2.5c-5.7,2.6-9.4,8.3-9.4,14.6v48H192c-8.8,0-16,7.2-16,16v96
		c0,8.8,7.2,16,16,16h176v48c0,6.3,3.6,12,9.4,14.6c2.1,1,4.4,1.4,6.6,1.4c3.8,0,7.6-1.3,10.5-4l128-112c3.5-3,5.5-7.4,5.5-12
		C528,393.4,526,389,522.5,386z M400,474.7V446c0-8.8-7.2-16-16-16H208v-64h176c8.8,0,16-7.2,16-16v-28.7l87.7,76.7L400,474.7z"/>
</g>
</svg>
