<?xml version="1.0" encoding="utf-8"?>
<!-- Generator: Adobe Illustrator 19.0.0, SVG Export Plug-In . SVG Version: 6.00 Build 0)  -->
<svg version="1.1" id="Layer_1" xmlns="http://www.w3.org/2000/svg" xmlns:xlink="http://www.w3.org/1999/xlink" x="0px" y="0px"
	 viewBox="-223 25 512 512" style="enable-background:new -223 25 512 512;" xml:space="preserve">
<g>
	<path d="M62.5,478.9C44.6,470.6,34.2,456,33.7,438l0-0.4l0-1.6l0.4-12.9l1.2-41.9l0.3,0.1l3.1-102.3h-61.5v200.7H63L62.5,478.9z"/>
	<path d="M-44.9,203.2c-17.2,0-31,13.8-31,31s13.8,31,31,31s31-13.8,31-31S-27.7,203.2-44.9,203.2z"/>
	<path d="M-45.9,170.2c0-17.2-13.8-31-31-31s-31,13.8-31,31c0,5.7,1.5,11,4.1,15.5c9.9,1.5,18.9,5.9,25.9,12.3
		c7.6-6.9,17.3-11.5,28-12.5C-47.3,181-45.9,175.8-45.9,170.2z"/>
	<path d="M-110.9,203.2c-17.2,0-31,13.8-31,31s13.8,31,31,31c8.7,0,16.5-3.5,22.1-9.2c-3.2-6.6-5.1-14-5.1-21.8s1.9-15.2,5.1-21.8
		C-94.4,206.7-102.2,203.2-110.9,203.2z"/>
	<path d="M102.3,483.8c-6.2,0.2-12.3,0.1-18.4-0.4c-1.1,3.5-1.5,7.1-1.2,10.8c0.8,9.2,5.4,18.4,13,25.4l15.3-5.4
		c-5.4-4.9-9.6-12.9-10.3-20.4C100.5,490.2,101,486.7,102.3,483.8z"/>
	<path d="M3.1,203.2c-3.2,0-6.2,0.5-9,1.3c6.2,8.3,10,18.6,10,29.7c0,11.1-3.8,21.4-10,29.7c2.8,0.8,5.8,1.3,9,1.3
		c17.2,0,31-13.8,31-31S20.3,203.2,3.1,203.2z"/>
	<path d="M154,47.6c-1.9-2.9-5.9-5.2-13.5-5.1l-96.1,0c-12.3,0-15,5.8-14.9,11.1c0,5.2,2.8,11,15.1,11l96.1-0.2c12.3,0,15-5.8,15-11
		C155.6,51.4,155.2,49.4,154,47.6z"/>
	<path d="M132.9,249.1l-5.2-166.6l-68.8,0.1L54.8,248c9.5,4.2,22.4,5.3,39.1,5.3C110.6,253.3,120.1,252.2,132.9,249.1z"/>
	<path d="M50.9,374.8c12,4.5,24.6,7.1,37.2,7.9l0.1,0.2c1.9,0.1,3.8,0.1,5.6,0c1.9,0,3.8,0,5.6,0l0.1-0.2
		c12.6-0.8,25.2-3.4,37.2-7.9l-3.3-109.6c-11.1,2.4-31.9,3.5-39.6,3.5c-6.2,0-28.5-1.1-39.6-3.5L50.9,374.8z"/>
	<path d="M138.8,433l-0.2-0.1l-0.9-29.5c-10.8,3.6-22,5.8-33.2,6.6l-0.1,0c-3.3,0.3-6.6,0.4-9.9,0.4c-0.3,0-0.5,0-0.8,0
		c-0.3,0-0.5,0-0.8,0c-3.3,0-6.6-0.2-9.9-0.4l-0.1,0c-11.3-0.8-22.4-3-33.2-6.6l-0.9,29.5l-0.2,0.1l0.2,0.3l-0.2,6
		c0.4,14.5,10.4,24.2,23.8,29.2l1.4,2.1c6.4,1.5,13.2,2.2,19.9,1.9c6.7,0.2,13.5-0.4,19.9-1.9l1.4-2.1c13.4-5,23.3-14.7,23.8-29.2
		l-0.2-6L138.8,433z"/>
	<path d="M5.4,194.1c14.5-9.2,18.8-28.2,9.6-42.8s-28.2-18.8-42.8-9.6c-4.8,3-8.5,7.2-10.9,11.8c4,9.2,5.1,19.1,3.5,28.5
		c9.9,2.7,19,8.5,25.5,17C-4.5,198.7,0.6,197.1,5.4,194.1z"/>
	<path d="M148.9,278.9l3.1,102.3l0.1,0l1.2,41.9l0.4,12.9l0,1.6l0,0.4c-0.5,17.9-11,32.6-28.8,40.8l-0.5,0.7h83.3V278.9H148.9z"/>
</g>
</svg>
