<?xml version="1.0" encoding="utf-8"?><!-- Uploaded to: SVG Repo, www.svgrepo.com, Generator: SVG Repo Mixer Tools -->
<svg fill="#000000" width="800px" height="800px" viewBox="0 0 24 24" id="sound-max" data-name="Flat Line" xmlns="http://www.w3.org/2000/svg" class="icon flat-line"><path id="secondary" d="M11,5V19L7,15H4a1,1,0,0,1-1-1V10A1,1,0,0,1,4,9H7Z" style="fill: rgb(44, 169, 188); stroke-width: 2;"></path><path id="primary" d="M18.36,5.64a9,9,0,0,1,0,12.72" style="fill: none; stroke: rgb(0, 0, 0); stroke-linecap: round; stroke-linejoin: round; stroke-width: 2;"></path><path id="primary-2" data-name="primary" d="M15.54,8.46a5,5,0,0,1,0,7.08" style="fill: none; stroke: rgb(0, 0, 0); stroke-linecap: round; stroke-linejoin: round; stroke-width: 2;"></path><path id="primary-3" data-name="primary" d="M11,5V19L7,15H4a1,1,0,0,1-1-1V10A1,1,0,0,1,4,9H7Z" style="fill: none; stroke: rgb(0, 0, 0); stroke-linecap: round; stroke-linejoin: round; stroke-width: 2;"></path></svg>