<?xml version="1.0" encoding="utf-8"?>
<!-- Generator: Adobe Illustrator 19.0.0, SVG Export Plug-In . SVG Version: 6.00 Build 0)  -->
<svg version="1.1" id="Layer_1" xmlns="http://www.w3.org/2000/svg" xmlns:xlink="http://www.w3.org/1999/xlink" x="0px" y="0px"
	 viewBox="-223 25 512 512" style="enable-background:new -223 25 512 512;" xml:space="preserve">
<g transform="translate(0,0)">
	<path d="M80.5,318.4l-14.1-56.5l49.5-33.2l-10.4-15.5l-43.9,29.4l-23.3-93.3l76.4-53.9L104,80.2l-86.5,61.1L-2.4,303.8v67.1h-61.7
		l-1.4-7.6l-4.7-25.1l-127.8,0c5.6,54.4,27.3,108.1,66.8,143.6h282.3c9.5-51.5,39.8-95.1,73.7-136.4h-0.1l45.4-32.3l-10.8-15.3
		l-66.9,47.5h-49.7l-18.7,16.3l-4.9,5.8l-2.8,3.3H16.3v-73.1l17.2-167.9l-92.8,65.5l10.8,15.2L22,160.9l23.1,92.8l-49.2,31.9
		L6,302.4L49.9,273l12.5,50L80.5,318.4L80.5,318.4z"/>
</g>
<rect x="18.8" y="119" transform="matrix(0.9945 0.1045 -0.1045 0.9945 13.8015 -2.0426)" width="15.2" height="23.3"/>
</svg>
