<?xml version="1.0" encoding="utf-8"?>
<!-- Generator: Adobe Illustrator 19.0.0, SVG Export Plug-In . SVG Version: 6.00 Build 0)  -->
<svg version="1.1" id="Layer_1" xmlns="http://www.w3.org/2000/svg" xmlns:xlink="http://www.w3.org/1999/xlink" x="0px" y="0px"
	 viewBox="-223 25 512 512" style="enable-background:new -223 25 512 512;" xml:space="preserve">
<g>
	<path d="M15,138.2v19c9-0.7,17.7-1.1,26.3-1.1c3.3,0,6.5,0,9.7,0.1v-18.3c-5.6-0.5-11.1-0.7-16.7-0.7
		C27.9,137.3,21.5,137.6,15,138.2z"/>
	<path d="M186,207.7v-18h-24.5c2.6,6.1,5.1,12.1,7.6,18H186z"/>
	<path d="M-91.7,189.7H-120v18h27.9C-91.9,201.7-91.8,195.7-91.7,189.7z"/>
	<path d="M51,61.8V45H15v16.8c4.8-0.3,9.6-0.5,14.3-0.6C36.6,61.1,43.8,61.3,51,61.8z"/>
	<path d="M121.4,133.8c-2-15.7-8.3-28.9-16-44.5C79.7,82.6,57.2,79,34,78.9h0h-4.6c-24.3,0.4-48,4.6-79.2,12.5
		c-0.4,13.8-1.8,27.5-3.9,42.4C16,115.4,55.9,115.1,121.4,133.8z"/>
	<polygon points="37.3,478.6 37.3,478.6 37.3,478.6 	"/>
	<path d="M224.7,448c0.6,5.9,1.2,11.9,1.8,18H245v-18H224.7z"/>
	<path d="M15,478.9v38.3h36v-38.5c-4.6,0-9.1-0.1-13.7-0.1C29.9,478.6,22.4,478.7,15,478.9z"/>
	<path d="M-177,466h28.8c2.4-6,4.8-12,7.1-18H-177V466z"/>
	<path d="M141.5,188.9c-36.4-10-67.1-15.2-100.4-15.1v0c-32.8,0.2-68.7,5.7-114.9,16.4c-0.8,109-25,203.2-60.3,288.3
		c106.2-24.2,242.4-24.3,343.7,1.3C197,341.2,180.3,277.1,141.5,188.9z M-67.6,318.7c4.8-14.4,51.5-74.2,63.5-103l18.6,7.2
		c18.6,7.2-21,40.7-18.6,49.1C-1.7,280.4-72.4,333.1-67.6,318.7z M-0.5,296c0-26.3,55.1-86.2,86.2-87.4
		c31.1-1.2-12.6,129.3-27.8,136.5c-15.3,7.2-125.4,53.9-125.4,53.9S-0.5,322.3-0.5,296z M-4.1,413.3c0,0,106.6-83.8,110.1-92.2
		c3.6-8.4,29.9-25.1,41.9-23.9c12,1.2-15.6,73-31.1,77.8S-4.1,413.3-4.1,413.3z M110.8,432.5c-14.6-5.7-25.3-0.5-26.3,0
		c0,0,0,0-0.1,0c0,0,0,0,0.1,0C134.8,407.3,158,369,158,369S126.1,438.5,110.8,432.5z"/>
</g>
</svg>
