<?xml version="1.0" encoding="utf-8"?>
<!-- Generator: Adobe Illustrator 19.0.0, SVG Export Plug-In . SVG Version: 6.00 Build 0)  -->
<svg version="1.1" id="Layer_1" xmlns="http://www.w3.org/2000/svg" xmlns:xlink="http://www.w3.org/1999/xlink" x="0px" y="0px"
	 viewBox="-223 25 512 512" style="enable-background:new -223 25 512 512;" xml:space="preserve">
<g transform="translate(0,0)">
	<path d="M-129.2,100.5l-53.5,79.8c-6.8,10.2-3.5,15.7,0.9,18.6c4.3,2.9,10.7,3.8,17.5-6.4l53.4-79.9c6.8-10.2,3.5-15.7-0.8-18.6
		c-1.7-1.1-3.6-1.9-5.7-1.9C-120.9,92.1-125,94.1-129.2,100.5z M-141.3,190.6l109.2,87.2h21.6c3.7-9,12.4-15,22.2-15
		c1.2,0,2.4,0.1,3.6,0.3l1.8-2.4c9-12.6,16.5-26.4,21.1-38.8L-103,133.4L-141.3,190.6z M53.8,231.7c-5.3,13.3-13,26.8-22,39.4
		c-0.3,0.4-0.6,0.9-0.9,1.3c1.2,1.7,2.2,3.5,3,5.4h42.8l0,64h54.5c10.2-14.3,17.6-30.6,21.7-47.9L53.8,231.7L53.8,231.7z
		 M-51.3,295.8v94.8c22.7,4.3,40,24.3,40,48.2c0,11.7-4.2,22.5-11.1,31h209.1v-46h-64v-64h-64v-64L-51.3,295.8z M168.9,303.9
		c-5.6,20.2-15.3,39-28.2,55.3v46.6h50.9c23.8-22,37.1-62.1,11.5-80.4L168.9,303.9L168.9,303.9z M-171.3,374.8
		c0,5.7,1.5,11,4.1,15.5c9.9,1.5,18.9,5.9,25.9,12.3c7.6-6.9,17.3-11.5,28-12.5c2.6-4.5,4-9.7,4-15.3c0-17.2-13.8-31-31-31
		S-171.3,357.6-171.3,374.8z M211.6,410.8c4.5,4.4,9.6,8.2,15,11.5c13.9,8.4,29.9,13.5,44.2,14l0.6-18c-10.2-0.3-24.1-4.6-35.4-11.4
		c-5.3-3.2-10-7-13.6-11C219.2,401.2,215.6,406.2,211.6,410.8z M-69.3,409.1c6.2,8.3,10,18.6,10,29.7s-3.8,21.4-10,29.7
		c2.8,0.8,5.8,1.3,9,1.3c17.2,0,31-13.8,31-31s-13.8-31-31-31C-63.5,407.8-66.5,408.3-69.3,409.1z M-139.3,438.8
		c0,17.2,13.8,31,31,31s31-13.8,31-31s-13.8-31-31-31S-139.3,421.6-139.3,438.8z M-205.3,438.8c0,17.2,13.8,31,31,31
		c8.7,0,16.5-3.5,22.1-9.2c-3.2-6.6-5.1-14-5.1-21.8s1.9-15.2,5.1-21.8c-5.6-5.7-13.4-9.2-22.1-9.2
		C-191.5,407.8-205.3,421.6-205.3,438.8z"/>
</g>
</svg>
