<?xml version="1.0" encoding="utf-8"?>
<!-- Generator: Adobe Illustrator 19.0.0, SVG Export Plug-In . SVG Version: 6.00 Build 0)  -->
<svg version="1.1" id="Layer_1" xmlns="http://www.w3.org/2000/svg" xmlns:xlink="http://www.w3.org/1999/xlink" x="0px" y="0px"
	 viewBox="-223 25 512 512" style="enable-background:new -223 25 512 512;" xml:space="preserve">
<g transform="translate(0,0)">
	<path d="M-94.1,219.4c0,12.6,3.3,24.3,9,34.2c21.8,3.3,41.7,13,57.1,27.1c16.8-15.2,38.1-25.4,61.7-27.6c5.7-9.9,8.8-21.4,8.8-33.7
		c0-37.9-30.4-68.3-68.3-68.3S-94.1,181.5-94.1,219.4z M130.8,295.1c13.7,18.3,22,41,22,65.5s-8.4,47.2-22,65.5
		c6.2,1.8,12.8,2.9,19.8,2.9c37.9,0,68.3-30.4,68.3-68.3s-30.4-68.3-68.3-68.3C143.6,292.2,137,293.3,130.8,295.1z M-23.5,360.6
		c0,37.9,30.4,68.3,68.3,68.3s68.3-30.4,68.3-68.3s-30.4-68.3-68.3-68.3S-23.5,322.6-23.5,360.6z M-169,360.6
		c0,37.9,30.4,68.3,68.3,68.3c19.2,0,36.4-7.7,48.7-20.3c-7.1-14.6-11.2-30.9-11.2-48.1s4.2-33.5,11.2-48.1
		c-12.3-12.6-29.5-20.3-48.7-20.3C-138.6,292.2-169,322.6-169,360.6z M81,191.1c-13.4,24.8-6.4,49.9-5.2,61.2
		c8.9-0.4,32.2,7.4,41.2,21.4c21.4-7.2,45.1-7.9,67.6-0.5c9.2-6.8,16.6-16.1,21.6-27.4c15.2-34.7-0.5-74.8-35.2-90
		C136.2,140.7,99,157.7,81,191.1z"/>
</g>
</svg>
