<?xml version="1.0" encoding="utf-8"?>
<!-- Generator: Adobe Illustrator 19.0.0, SVG Export Plug-In . SVG Version: 6.00 Build 0)  -->
<svg version="1.1" id="Layer_1" xmlns="http://www.w3.org/2000/svg" xmlns:xlink="http://www.w3.org/1999/xlink" x="0px" y="0px"
	 viewBox="-223 25 512 512" style="enable-background:new -223 25 512 512;" xml:space="preserve">
<style type="text/css">
	.st0{fill:#FFFFFF;stroke:#000000;stroke-miterlimit:10;}
	.st1{fill:#FFC414;}
</style>
<rect x="-18" y="165" class="st0" width="107" height="128"/>
<rect x="-179.3" y="328" class="st0" width="107" height="128"/>
<rect x="152.7" y="387.5" class="st0" width="107" height="128"/>
<g transform="translate(0,0)">
	<path class="st1" d="M-132.5,415.1H-94v16.6h-63.6v-16.6l31.9-28.2c2.9-2.6,5-5.1,6.3-7.6c1.4-2.5,2.1-5,2.1-7.7
		c0-4.1-1.4-7.4-4.2-9.9c-2.7-2.5-6.4-3.8-11-3.8c-3.5,0-7.4,0.8-11.5,2.3c-4.2,1.5-8.7,3.7-13.4,6.7v-19.2
		c5.1-1.7,10.1-2.9,15.1-3.8c5-0.9,9.8-1.4,14.6-1.4c10.5,0,18.6,2.3,24.4,6.9c5.8,4.6,8.7,11,8.7,19.3c0,4.8-1.2,9.2-3.7,13.4
		c-2.5,4.1-7.6,9.6-15.5,16.5L-132.5,415.1 M216.9,448c5.9,1.5,10.4,4.2,13.4,8c3.1,3.8,4.6,8.5,4.6,14.4c0,8.7-3.3,15.3-10,19.8
		c-6.6,4.5-16.3,6.7-29.1,6.7c-4.5,0-9-0.4-13.5-1.1c-4.5-0.7-8.9-1.8-13.4-3.2v-17.4c4.2,2.1,8.4,3.7,12.5,4.8
		c4.2,1.1,8.3,1.6,12.3,1.6c6,0,10.5-1,13.7-3.1c3.2-2.1,4.8-5,4.8-8.9c0-4-1.6-7-4.9-9c-3.2-2.1-8-3.1-14.4-3.1h-9v-14.5h9.5
		c5.7,0,9.9-0.9,12.7-2.6c2.8-1.8,4.2-4.5,4.2-8.1c0-3.4-1.3-6-4-7.8c-2.7-1.8-6.5-2.8-11.4-2.8c-3.6,0-7.3,0.4-11,1.2
		c-3.7,0.8-7.4,2-11.1,3.6v-16.5c4.5-1.3,8.9-2.2,13.2-2.8c4.4-0.6,8.7-0.9,12.9-0.9c11.4,0,19.9,1.9,25.5,5.6
		c5.7,3.7,8.5,9.3,8.5,16.8c0,5.1-1.3,9.3-4,12.6C226.2,444.4,222.2,446.6,216.9,448 M13.1,255.7H33v-56.5l-20.4,4.2v-15.4l20.3-4.2
		h21.4v71.9h19.9v15.6H13.1L13.1,255.7 M273,521V377H129V153H-47v160h-160v208"/>
</g>
</svg>
